<svg xmlns="http://www.w3.org/2000/svg" viewBox="0 0 174.12 79.66"><defs><style>.cls-1{fill:#02a9b0;}.cls-1,.cls-3,.cls-5{fill-rule:evenodd;}.cls-2,.cls-4{fill:none;stroke-width:0.19px;}.cls-2{stroke:#02a9b0;}.cls-3{fill:#b6e1e7;}.cls-4{stroke:#b6e1e7;}.cls-5,.cls-6{fill:#1b1918;}</style></defs><g id="Layer_2" data-name="Layer 2"><g id="Layer_1-2" data-name="Layer 1"><path class="cls-1" d="M89.25,21.72A47.78,47.78,0,0,0,49.05.09a49,49,0,0,0-49,49A49.54,49.54,0,0,0,8.22,75.46,51,51,0,0,1,2.85,53.39c0-27.24,21.23-48.86,47.58-48.86a46.71,46.71,0,0,1,37.24,18l-6.45.54L95.36,35,93.88,16.55Z"/><path class="cls-2" d="M89.25,21.72A47.78,47.78,0,0,0,49.05.09a49,49,0,0,0-49,49A49.54,49.54,0,0,0,8.22,75.46,51,51,0,0,1,2.85,53.39c0-27.24,21.23-48.86,47.58-48.86a46.71,46.71,0,0,1,37.24,18l-6.45.54L95.36,35,93.88,16.55Z"/><path class="cls-3" d="M82.55,33.39A37.19,37.19,0,0,0,50,14.38C29.11,14.38,12,31.67,12,53.24c0,5.91.89,12,3.16,17a39.52,39.52,0,0,1-4.73-18.81,38.72,38.72,0,0,1,38.52-39C63.73,12.41,76.44,19.65,82.55,33.39Z"/><path class="cls-4" d="M82.55,33.39A37.19,37.19,0,0,0,50,14.38C29.11,14.38,12,31.67,12,53.24c0,5.91.89,12,3.16,17a39.52,39.52,0,0,1-4.73-18.81,38.72,38.72,0,0,1,38.52-39C63.73,12.41,76.44,19.65,82.55,33.39Z"/><path class="cls-3" d="M12,52.65a8.93,8.93,0,0,0,2.12.54,18.65,18.65,0,0,0,5.52-.79,25.69,25.69,0,0,0,3.84-1.47A41.56,41.56,0,0,1,16,52c-2.66,0-3.74-.64-3.79-1s.49-2.47,3.25-4.78A73.24,73.24,0,0,1,24,39.65c4.34-2.86,9.51-6.11,11.68-7.34s8.52-4.63,9.65-5.22,1.92-1,2.86-1.38c1.43-.59,8.27-3.2,10.34-3.7s3.74-.74,6.26-1.13,5-.1,5.17.49S69,23.79,67.87,25a60.58,60.58,0,0,1-6.5,6.25c-2.07,1.68-6.45,5.22-7.54,6s7.1-3.49,12.51-8.47c2.47-2.27,7.1-6.7,5-8.72-2.27-2.21-8.77-.29-10.35.15s-6.65,2.22-9.4,3.35-6.7,2.86-8.43,3.55-8.27,3.79-9.95,4.63-6.06,3.39-7.48,4.28-7.39,5-9.56,6.85a29,29,0,0,0-3.84,4,6.32,6.32,0,0,0-1.43,3.35C10.88,52.16,12,52.65,12,52.65Z"/><path class="cls-4" d="M12,52.65a8.93,8.93,0,0,0,2.12.54,18.65,18.65,0,0,0,5.52-.79,25.69,25.69,0,0,0,3.84-1.47A41.56,41.56,0,0,1,16,52c-2.66,0-3.74-.64-3.79-1s.49-2.47,3.25-4.78A73.24,73.24,0,0,1,24,39.65c4.34-2.86,9.51-6.11,11.68-7.34s8.52-4.63,9.65-5.22,1.92-1,2.86-1.38c1.43-.59,8.27-3.2,10.34-3.7s3.74-.74,6.26-1.13,5-.1,5.17.49S69,23.79,67.87,25a60.58,60.58,0,0,1-6.5,6.25c-2.07,1.68-6.45,5.22-7.54,6s7.1-3.49,12.51-8.47c2.47-2.27,7.1-6.7,5-8.72-2.27-2.21-8.77-.29-10.35.15s-6.65,2.22-9.4,3.35-6.7,2.86-8.43,3.55-8.27,3.79-9.95,4.63-6.06,3.39-7.48,4.28-7.39,5-9.56,6.85a29,29,0,0,0-3.84,4,6.32,6.32,0,0,0-1.43,3.35C10.88,52.16,12,52.65,12,52.65Z"/><path class="cls-3" d="M21.18,27.23A2.67,2.67,0,0,0,22.85,29c1.43.59,4.48.49,6.5.05s3.15-.74,4.78-1.18a48.82,48.82,0,0,0,5.37-2A23.86,23.86,0,0,0,44.13,23c.54-.4,3-2.81,3.55-3.35a11,11,0,0,0,1.82-2.86,5.23,5.23,0,0,0-.25-2.46,3.83,3.83,0,0,1-.39,3c-.89,1.48-4,3.7-4.68,4.14s-5.81,3.15-7,3.75-4.58,2.31-5.86,2.75a16.46,16.46,0,0,1-3.25.74c-.74.05-3.84.5-4.78-.29s-1-1.48-.79-2-.59-.59-.73-.4S21.18,27.23,21.18,27.23Z"/><path class="cls-4" d="M21.18,27.23A2.67,2.67,0,0,0,22.85,29c1.43.59,4.48.49,6.5.05s3.15-.74,4.78-1.18a48.82,48.82,0,0,0,5.37-2A23.86,23.86,0,0,0,44.13,23c.54-.4,3-2.81,3.55-3.35a11,11,0,0,0,1.82-2.86,5.23,5.23,0,0,0-.25-2.46,3.83,3.83,0,0,1-.39,3c-.89,1.48-4,3.7-4.68,4.14s-5.81,3.15-7,3.75-4.58,2.31-5.86,2.75a16.46,16.46,0,0,1-3.25.74c-.74.05-3.84.5-4.78-.29s-1-1.48-.79-2-.59-.59-.73-.4S21.18,27.23,21.18,27.23Z"/><path class="cls-3" d="M32.6,18.27a49.36,49.36,0,0,0-.93,5,35.1,35.1,0,0,0-.4,5.87,33.86,33.86,0,0,0,.4,4.28c.14.79,1,3.69,1,3.69s-2.71-3.3-3.2-6.65a14.93,14.93,0,0,1,.2-6.4A56.42,56.42,0,0,1,31.91,18Z"/><path class="cls-4" d="M32.6,18.27a49.36,49.36,0,0,0-.93,5,35.1,35.1,0,0,0-.4,5.87,33.86,33.86,0,0,0,.4,4.28c.14.79,1,3.69,1,3.69s-2.71-3.3-3.2-6.65a14.93,14.93,0,0,1,.2-6.4A56.42,56.42,0,0,1,31.91,18Z"/><path class="cls-3" d="M33.1,17.92s5.36,2.22,7.38,3.26A19.94,19.94,0,0,1,44.72,24a16.54,16.54,0,0,1,2.56,2.37c.74.88,1.48,1.92,1.48,1.92a9.14,9.14,0,0,0-1.63-3.84,17.26,17.26,0,0,0-4.77-4.34,16.55,16.55,0,0,0-4.78-1.77c-1.23-.25-3.6-.59-4.24-.64s-1.13-.05-1.13-.05Z"/><path class="cls-4" d="M33.1,17.92s5.36,2.22,7.38,3.26A19.94,19.94,0,0,1,44.72,24a16.54,16.54,0,0,1,2.56,2.37c.74.88,1.48,1.92,1.48,1.92a9.14,9.14,0,0,0-1.63-3.84,17.26,17.26,0,0,0-4.77-4.34,16.55,16.55,0,0,0-4.78-1.77c-1.23-.25-3.6-.59-4.24-.64s-1.13-.05-1.13-.05Z"/><path class="cls-3" d="M34.38,17a70.81,70.81,0,0,1,9.5.64,25.61,25.61,0,0,1,6.26,1.67A46.33,46.33,0,0,1,56.89,23a32.41,32.41,0,0,1,3.44,2.86c1.14,1,2.47,2.46,3.3,3.3s2.12,2.61,2.47,3,.74,1.08.74,1.08S66,31.37,65.21,30c-2.61-4.92-7.73-8.72-8.67-9.41A25.52,25.52,0,0,0,48.81,17a34.24,34.24,0,0,0-5.81-1,47.78,47.78,0,0,0-5.87,0c-.88.1-3.84.2-3.84.2Z"/><path class="cls-4" d="M34.38,17a70.81,70.81,0,0,1,9.5.64,25.61,25.61,0,0,1,6.26,1.67A46.33,46.33,0,0,1,56.89,23a32.41,32.41,0,0,1,3.44,2.86c1.14,1,2.47,2.46,3.3,3.3s2.12,2.61,2.47,3,.74,1.08.74,1.08S66,31.37,65.21,30c-2.61-4.92-7.73-8.72-8.67-9.41A25.52,25.52,0,0,0,48.81,17a34.24,34.24,0,0,0-5.81-1,47.78,47.78,0,0,0-5.87,0c-.88.1-3.84.2-3.84.2Z"/><path class="cls-3" d="M25.21,23.69a55.74,55.74,0,0,0-3.44,6.06,30.83,30.83,0,0,0-2,7,26.85,26.85,0,0,0-.1,6.4,42.64,42.64,0,0,0,1.18,5.72A20,20,0,0,0,22.41,53a14.51,14.51,0,0,0,1.28,2,18.66,18.66,0,0,1-1-3c-.39-1.68-.88-4.43-1-5.76s-.4-4.63-.4-6.41a40,40,0,0,1,1.48-7.43,33.4,33.4,0,0,1,3-6.41c1.28-2,3.54-5.27,4.33-6.4s-3.74,2.46-3.89,2.71A5.24,5.24,0,0,0,25.21,23.69Z"/><path class="cls-4" d="M25.21,23.69a55.74,55.74,0,0,0-3.44,6.06,30.83,30.83,0,0,0-2,7,26.85,26.85,0,0,0-.1,6.4,42.64,42.64,0,0,0,1.18,5.72A20,20,0,0,0,22.41,53a14.51,14.51,0,0,0,1.28,2,18.66,18.66,0,0,1-1-3c-.39-1.68-.88-4.43-1-5.76s-.4-4.63-.4-6.41a40,40,0,0,1,1.48-7.43,33.4,33.4,0,0,1,3-6.41c1.28-2,3.54-5.27,4.33-6.4s-3.74,2.46-3.89,2.71A5.24,5.24,0,0,0,25.21,23.69Z"/><path class="cls-1" d="M34.23,69.94a40.48,40.48,0,0,0,25.12,9.6c9.31.3,15.22-2.46,18.47-4.72a80,80,0,0,1-11.62.83c-14.49.3-29-8.32-29-8.32l4.88-2.17L25,58.22l7,17.14Z"/><path class="cls-2" d="M34.23,69.94a40.48,40.48,0,0,0,25.12,9.6c9.31.3,15.22-2.46,18.47-4.72a80,80,0,0,1-11.62.83c-14.49.3-29-8.32-29-8.32l4.88-2.17L25,58.22l7,17.14Z"/><path class="cls-5" d="M43,44.47h-5v2.32h2.22v3.74a5.51,5.51,0,0,1-.59.15,5,5,0,0,1-.94,0,4.12,4.12,0,0,1-3.15-1.33,5.86,5.86,0,0,1-1.28-4,5.83,5.83,0,0,1,1.38-4.09A4.54,4.54,0,0,1,39,40a8.46,8.46,0,0,1,1.72.15,6,6,0,0,1,1.23.39l.64-2.41a4.82,4.82,0,0,0-1.47-.44,12.75,12.75,0,0,0-2.07-.2,8.67,8.67,0,0,0-4,.89,6.55,6.55,0,0,0-2.81,2.66,8.41,8.41,0,0,0-1,4.33,10.28,10.28,0,0,0,.55,3.35,6.1,6.1,0,0,0,3.84,3.89,9.66,9.66,0,0,0,3.1.44,12.36,12.36,0,0,0,2.46-.24,16.74,16.74,0,0,0,1.88-.5V44.47Z"/><rect class="cls-6" x="45.46" y="36.99" width="2.96" height="15.96"/><path class="cls-5" d="M57.72,47.43A5.58,5.58,0,0,1,57.18,50a1.8,1.8,0,0,1-1.57,1.08A1.84,1.84,0,0,1,54,50a5,5,0,0,1-.54-2.51,6.24,6.24,0,0,1,.2-1.68,3.89,3.89,0,0,1,.69-1.38,1.73,1.73,0,0,1,2.51,0,3.56,3.56,0,0,1,.69,1.33A6.41,6.41,0,0,1,57.72,47.43Zm-2.07-5.76a4.92,4.92,0,0,0-3.74,1.52,5.85,5.85,0,0,0-1.48,4.29,6.1,6.1,0,0,0,1.43,4.19,4.89,4.89,0,0,0,3.7,1.47A5.08,5.08,0,0,0,58,52.55a4.6,4.6,0,0,0,1.92-1.87,6.7,6.7,0,0,0,.79-3.4,6,6,0,0,0-1.38-4.09A4.94,4.94,0,0,0,55.65,41.67Z"/><path class="cls-5" d="M65.8,46.39a2.49,2.49,0,0,1,.64-1.72A1.77,1.77,0,0,1,67.82,44a1.83,1.83,0,0,1,1.68,1A4.44,4.44,0,0,1,70,47.38a4.85,4.85,0,0,1-.59,2.56,1.94,1.94,0,0,1-1.68.94,1.77,1.77,0,0,1-1.43-.69,2.64,2.64,0,0,1-.54-1.63V46.39Zm0-3.15V37H62.85v12.8c0,.59,0,1.14-.05,1.73s0,1,0,1.48h2.51l.15-1.53h0a3.06,3.06,0,0,0,1.28,1.33,3.27,3.27,0,0,0,1.67.39,3.69,3.69,0,0,0,2.17-.64,4.69,4.69,0,0,0,1.67-2,8,8,0,0,0,.69-3.35,6.78,6.78,0,0,0-1.13-4A3.75,3.75,0,0,0,67,42.11a3.47,3.47,0,0,0-1.23,1.13Z"/><path class="cls-5" d="M80.43,49.2a1.78,1.78,0,0,1-.34,1.14,1.75,1.75,0,0,1-.74.59,1.78,1.78,0,0,1-.79.19,1.47,1.47,0,0,1-1-.34,1.89,1.89,0,0,1-.44-1.13,1.7,1.7,0,0,1,.49-1.24,2.49,2.49,0,0,1,1.23-.59,7.64,7.64,0,0,1,1.53-.14l.05,1.52Zm2.91-2.9a5.56,5.56,0,0,0-.4-2.27,3.33,3.33,0,0,0-1.33-1.67A4.56,4.56,0,0,0,79,41.72a7.57,7.57,0,0,0-2.26.29,5.76,5.76,0,0,0-1.53.64l.54,1.92a5.09,5.09,0,0,1,2.71-.74,1.88,1.88,0,0,1,1.58.55,2.08,2.08,0,0,1,.39,1.37,8,8,0,0,0-4.33,1,3.63,3.63,0,0,0-1.73,3.15,3.25,3.25,0,0,0,.89,2.32,3.29,3.29,0,0,0,2.41,1,3.74,3.74,0,0,0,1.68-.34,3.19,3.19,0,0,0,1.23-1h0l.2,1.14h2.66c0-.35-.1-.74-.15-1.19a13.11,13.11,0,0,1-.05-1.43V46.3Z"/><rect class="cls-6" x="85.9" y="36.99" width="2.96" height="15.96"/><path class="cls-5" d="M98.85,44.62V40a3.81,3.81,0,0,1,.54-.1c.25,0,.5,0,.84,0a4.33,4.33,0,0,1,1.13.15,1.77,1.77,0,0,1,1,.69,2.92,2.92,0,0,1,.44,1.48,2.23,2.23,0,0,1-.74,1.77,3,3,0,0,1-2,.69ZM103,45.71a4,4,0,0,0,1.82-1.43,4.19,4.19,0,0,0,.79-2.42,4.28,4.28,0,0,0-.64-2.41,3.48,3.48,0,0,0-1.53-1.28,6.92,6.92,0,0,0-1.92-.54,10.83,10.83,0,0,0-1.72-.1c-.74,0-1.48,0-2.17.1a13.84,13.84,0,0,0-1.77.24V53h2.9V46.74h1a2,2,0,0,1,1.57.54,4.46,4.46,0,0,1,.84,2c.2.94.35,1.72.54,2.32a4.57,4.57,0,0,0,.45,1.28h3a7.39,7.39,0,0,1-.49-1.63c-.2-.79-.39-1.62-.64-2.56a7,7,0,0,0-.74-1.92A2.68,2.68,0,0,0,103,45.71Z"/><path class="cls-5" d="M110.18,46.3a3.12,3.12,0,0,1,.25-1.14,2.33,2.33,0,0,1,.69-1,1.77,1.77,0,0,1,1.13-.45,1.63,1.63,0,0,1,1.13.4,1.78,1.78,0,0,1,.59,1,4.85,4.85,0,0,1,.15,1.19Zm5.72,4.23a9,9,0,0,1-1.24.35,6.67,6.67,0,0,1-1.47.14,3.38,3.38,0,0,1-2.07-.59,2.41,2.41,0,0,1-.94-2h6.6a1.77,1.77,0,0,0,0-.54v-.64a6.24,6.24,0,0,0-1.23-4.09,4,4,0,0,0-3.2-1.38,4.59,4.59,0,0,0-2.76.84,5,5,0,0,0-1.72,2.17,7.1,7.1,0,0,0-.6,2.95,6,6,0,0,0,1.38,4.09,5.37,5.37,0,0,0,4,1.53,12.59,12.59,0,0,0,2-.15,7.6,7.6,0,0,0,1.63-.44Z"/><path class="cls-5" d="M126,50.48a3.49,3.49,0,0,1-.79.25,5.9,5.9,0,0,1-1,.1,2.72,2.72,0,0,1-2.12-.89,3.6,3.6,0,0,1-.84-2.51,3.69,3.69,0,0,1,.79-2.46,2.62,2.62,0,0,1,2.17-1,6,6,0,0,1,1,.1,2.12,2.12,0,0,1,.69.25l.5-2.27a8.12,8.12,0,0,0-1-.3,6,6,0,0,0-1.33-.14,6.39,6.39,0,0,0-3.15.78,4.74,4.74,0,0,0-2,2.07,6.67,6.67,0,0,0-.69,3,5.59,5.59,0,0,0,1.48,4.14,5.16,5.16,0,0,0,3.89,1.47,8,8,0,0,0,1.57-.14,3.47,3.47,0,0,0,1.09-.35Z"/><path class="cls-5" d="M134.32,41.91l-1.38,5.77c-.1.34-.15.68-.25,1.08a8.54,8.54,0,0,0-.2,1h0c0-.29-.15-.64-.25-1l-.3-1-1.62-5.77h-3.2l3.69,10.2a1.05,1.05,0,0,1,.1.49,2.39,2.39,0,0,1-.39.84,4.12,4.12,0,0,1-1.09,1.18,5.13,5.13,0,0,1-.79.49,7.93,7.93,0,0,1-.74.35l.74,2.46a4.52,4.52,0,0,0,1.28-.44,5.76,5.76,0,0,0,1.58-1.14,9.51,9.51,0,0,0,1.72-2.51,43.36,43.36,0,0,0,1.73-4.23l2.51-7.69Z"/><path class="cls-5" d="M145.89,50.48a3.49,3.49,0,0,1-.79.25,5.9,5.9,0,0,1-1,.1,2.79,2.79,0,0,1-2.12-.89,3.6,3.6,0,0,1-.84-2.51A3.69,3.69,0,0,1,142,45a2.61,2.61,0,0,1,2.17-1,6,6,0,0,1,1,.1,2.12,2.12,0,0,1,.69.25l.5-2.27a8.71,8.71,0,0,0-1-.3,6,6,0,0,0-1.33-.14,6.06,6.06,0,0,0-3.1.78,4.74,4.74,0,0,0-2,2.07,6.54,6.54,0,0,0-.69,3,5.59,5.59,0,0,0,1.48,4.14,5.16,5.16,0,0,0,3.89,1.47A8,8,0,0,0,145.2,53a3.47,3.47,0,0,0,1.09-.35Z"/><rect class="cls-6" x="148.06" y="36.99" width="2.96" height="15.96"/><path class="cls-5" d="M155.89,46.3a4.67,4.67,0,0,1,.25-1.14,2.33,2.33,0,0,1,.69-1,1.77,1.77,0,0,1,1.13-.45,1.63,1.63,0,0,1,1.13.4,1.78,1.78,0,0,1,.59,1,4.85,4.85,0,0,1,.15,1.19Zm5.72,4.23a9,9,0,0,1-1.24.35,6.67,6.67,0,0,1-1.47.14,3.38,3.38,0,0,1-2.07-.59,2.41,2.41,0,0,1-.94-2h6.6a1.77,1.77,0,0,0,0-.54v-.64a6.24,6.24,0,0,0-1.23-4.09,4,4,0,0,0-3.2-1.38,4.59,4.59,0,0,0-2.76.84,5,5,0,0,0-1.72,2.17,7.1,7.1,0,0,0-.6,2.95,6,6,0,0,0,1.38,4.09,5.33,5.33,0,0,0,3.94,1.53,12.59,12.59,0,0,0,2-.15,6.88,6.88,0,0,0,1.63-.44Z"/><path class="cls-5" d="M171.16,48.46a2.57,2.57,0,0,1-.69,1.88,2,2,0,0,1-1.33.54,1.79,1.79,0,0,1-1.62-.94,4.32,4.32,0,0,1-.59-2.41,4.66,4.66,0,0,1,.59-2.47,2,2,0,0,1,1.67-1,1.85,1.85,0,0,1,1.33.59,2.49,2.49,0,0,1,.59,1.82l0,2Zm3-11.47h-3v6h0a2.17,2.17,0,0,0-1-.94,3.38,3.38,0,0,0-1.68-.34,4,4,0,0,0-2.21.69,4.3,4.3,0,0,0-1.63,2,7.75,7.75,0,0,0-.64,3.2,6.84,6.84,0,0,0,1.18,4.09,3.9,3.9,0,0,0,3.11,1.57,3.58,3.58,0,0,0,1.87-.49,3.28,3.28,0,0,0,1.28-1.28h0l.15,1.58h2.56c0-.45-.05-.89-.05-1.48s0-1.14,0-1.68V37Z"/><path class="cls-5" d="M80.58,55.65a6,6,0,0,0-1.38-.49A7.34,7.34,0,0,0,77.28,55a5.77,5.77,0,0,0-3.89,1.28A4,4,0,0,0,72,59.4,3.7,3.7,0,0,0,73,62a7.45,7.45,0,0,0,2.71,1.82,5.74,5.74,0,0,1,1.87,1.14,1.83,1.83,0,0,1,.6,1.37,1.59,1.59,0,0,1-.65,1.38,2.88,2.88,0,0,1-1.87.55A7.27,7.27,0,0,1,73.83,68a5.5,5.5,0,0,1-1.48-.59l-.59,2.46a4.84,4.84,0,0,0,1.58.59,9.93,9.93,0,0,0,2.17.25,6.23,6.23,0,0,0,4.13-1.33,4.2,4.2,0,0,0,1.43-3.3,4.29,4.29,0,0,0-.84-2.61,6.87,6.87,0,0,0-2.71-1.92,8.82,8.82,0,0,1-2-1.14,1.52,1.52,0,0,1-.6-1.33,1.65,1.65,0,0,1,.55-1.18,2.66,2.66,0,0,1,1.72-.54,5.12,5.12,0,0,1,1.63.25,5.55,5.55,0,0,1,1.08.44Z"/><path class="cls-5" d="M83.68,59.4H82.25v2.17h1.43v5.12a6.13,6.13,0,0,0,.15,1.57,2.86,2.86,0,0,0,.84,1.63,3,3,0,0,0,2.26.74c.45,0,.84,0,1.14,0a2.5,2.5,0,0,0,.78-.2V68.17a1.3,1.3,0,0,1-.44,0c-.15,0-.3,0-.54,0a1.12,1.12,0,0,1-1-.44,2.33,2.33,0,0,1-.29-1.43V61.57h2.46V59.4H86.59V56.54l-2.91.84v2Z"/><path class="cls-5" d="M96.29,66.64A1.75,1.75,0,0,1,96,67.77a1.44,1.44,0,0,1-.74.59,1.68,1.68,0,0,1-.79.2,1.47,1.47,0,0,1-1-.34A1.92,1.92,0,0,1,93,67.08a1.69,1.69,0,0,1,.49-1.23,2.48,2.48,0,0,1,1.24-.59,7.46,7.46,0,0,1,1.52-.15v1.53Zm2.86-2.86a5.52,5.52,0,0,0-.4-2.26,3.39,3.39,0,0,0-1.33-1.68,4.63,4.63,0,0,0-2.66-.64,7.54,7.54,0,0,0-2.26.3,5.45,5.45,0,0,0-1.53.64l.54,1.92a4.42,4.42,0,0,1,1.23-.54,5.07,5.07,0,0,1,1.48-.2,1.91,1.91,0,0,1,1.58.54,2.13,2.13,0,0,1,.39,1.38,8.14,8.14,0,0,0-4.33,1,3.65,3.65,0,0,0-1.73,3.16A3.24,3.24,0,0,0,91,69.74a3.12,3.12,0,0,0,2.41,1,3.61,3.61,0,0,0,1.68-.35,3.1,3.1,0,0,0,1.23-1h0l.2,1.13h2.66c0-.34-.1-.74-.15-1.18a13.2,13.2,0,0,1,0-1.43V63.78Z"/><path class="cls-5" d="M111.17,63.68a5.06,5.06,0,0,0-1-3.39,3.31,3.31,0,0,0-2.56-1.09,3.77,3.77,0,0,0-2,.54,3.43,3.43,0,0,0-1.18,1.19h-.05l-.15-1.53h-2.51c0,.49,0,1,0,1.53v9.5h3v-6.6a2.38,2.38,0,0,1,.64-1.77,1.91,1.91,0,0,1,1.23-.54,1.45,1.45,0,0,1,1.33.69,3.61,3.61,0,0,1,.39,1.72v6.45h3v-6.7Z"/><path class="cls-5" d="M120.38,65.9a2.52,2.52,0,0,1-.69,1.87,2,2,0,0,1-1.33.54,1.81,1.81,0,0,1-1.63-.93,4.42,4.42,0,0,1-.59-2.42,4.72,4.72,0,0,1,.59-2.46,2,2,0,0,1,1.68-1,1.83,1.83,0,0,1,1.33.59,2.46,2.46,0,0,1,.59,1.82l0,2Zm3-11.43h-3v6h0a2.13,2.13,0,0,0-1-.93,3.31,3.31,0,0,0-1.67-.35,4.09,4.09,0,0,0-2.22.69,4.38,4.38,0,0,0-1.62,2,7.63,7.63,0,0,0-.64,3.2,6.8,6.8,0,0,0,1.18,4.09,3.86,3.86,0,0,0,3.1,1.58,3.58,3.58,0,0,0,1.87-.49,3.12,3.12,0,0,0,1.28-1.29h.05l.15,1.58h2.56c0-.44,0-.89,0-1.48s0-1.13,0-1.67V54.47Z"/><path class="cls-5" d="M131.41,66.64a1.75,1.75,0,0,1-.34,1.13,1.44,1.44,0,0,1-.74.59,1.68,1.68,0,0,1-.79.2,1.47,1.47,0,0,1-1-.34,1.92,1.92,0,0,1-.44-1.14,1.69,1.69,0,0,1,.49-1.23,2.48,2.48,0,0,1,1.24-.59,7.46,7.46,0,0,1,1.52-.15v1.53Zm2.86-2.86a5.52,5.52,0,0,0-.4-2.26,3.39,3.39,0,0,0-1.33-1.68,4.63,4.63,0,0,0-2.66-.64,7.54,7.54,0,0,0-2.26.3,5.45,5.45,0,0,0-1.53.64l.54,1.92a4.42,4.42,0,0,1,1.23-.54,5.07,5.07,0,0,1,1.48-.2,1.91,1.91,0,0,1,1.58.54,2.13,2.13,0,0,1,.39,1.38,8.14,8.14,0,0,0-4.33,1,3.65,3.65,0,0,0-1.73,3.16,3.24,3.24,0,0,0,.89,2.31,3.12,3.12,0,0,0,2.41,1,3.61,3.61,0,0,0,1.68-.35,3.17,3.17,0,0,0,1.23-1h0l.2,1.13h2.66c-.05-.34-.1-.74-.15-1.18a13.2,13.2,0,0,1-.05-1.43V63.78Z"/><path class="cls-5" d="M142.89,59.2c-.1,0-.2-.05-.3-.05h-.34a2.94,2.94,0,0,0-1.58.54,3.51,3.51,0,0,0-1.18,1.63h-.1l-.1-1.92h-2.51c0,.49.05,1,.05,1.57s0,1.19,0,1.88v7.58h3V64.72a3,3,0,0,1,.69-2.12,2.3,2.3,0,0,1,1.68-.69h.39a.74.74,0,0,1,.35.05l-.05-2.76Z"/><path class="cls-5" d="M151.11,65.9a2.48,2.48,0,0,1-.69,1.87,2,2,0,0,1-1.33.54,1.78,1.78,0,0,1-1.62-.93,4.34,4.34,0,0,1-.59-2.42,5.15,5.15,0,0,1,.54-2.46,2,2,0,0,1,1.72-1,1.8,1.8,0,0,1,1.33.59,2.42,2.42,0,0,1,.59,1.82l.05,2ZM154,54.47h-3v6h0a2.43,2.43,0,0,0-1-.93,3.31,3.31,0,0,0-1.67-.35,4.09,4.09,0,0,0-2.22.69,4.47,4.47,0,0,0-1.63,2,7.78,7.78,0,0,0-.64,3.2A6.8,6.8,0,0,0,145,69.1a3.85,3.85,0,0,0,3.1,1.58,3.58,3.58,0,0,0,1.87-.49,3.18,3.18,0,0,0,1.28-1.29h.05l.15,1.58H154c0-.44-.05-.89-.05-1.48s0-1.13-.05-1.67V54.47Z"/></g></g></svg>