<svg xmlns="http://www.w3.org/2000/svg" xmlns:xlink="http://www.w3.org/1999/xlink" viewBox="0 0 90.34 90.21"><defs><style>.cls-1{fill:none;}.cls-2{clip-path:url(#clip-path);}.cls-3{fill:#3e9645;}.cls-4{fill:#454546;}.cls-5{fill:#fff;}</style><clipPath id="clip-path"><rect class="cls-1" width="90.39" height="90.2"/></clipPath></defs><g id="Layer_2" data-name="Layer 2"><g id="Layer_1-2" data-name="Layer 1"><g class="cls-2"><path class="cls-3" d="M45.15,11A34.08,34.08,0,1,0,79.22,45.06,34.08,34.08,0,0,0,45.15,11"/></g><g class="cls-2"><path class="cls-4" d="M20.77,75.67c1.55,1.23,2,3,.69,4.56a3.14,3.14,0,0,1-4.6.41,5.36,5.36,0,0,1-1.32-1.37l.68-.77a3,3,0,0,0,1.05,1.23,2.07,2.07,0,0,0,3.09-.37,1.89,1.89,0,0,0-.18-2.91,2.86,2.86,0,0,0-.86-.46L18.5,77l.63.5-.54.68L17,77l1.83-2.32a5.4,5.4,0,0,1,1.95,1"/></g><g class="cls-2"><polygon class="cls-4" points="17.18 72.57 12.57 76.67 11.66 75.63 15.44 72.3 13.71 70.3 14.49 69.61 17.18 72.57"/></g><g class="cls-2"><path class="cls-4" d="M12.21,66.06c1,1.64.55,3.19-1.05,4.24a2.86,2.86,0,0,1-4.28-.87,2.84,2.84,0,0,1,1-4.24,2.86,2.86,0,0,1,4.28.87M7.65,68.93c.64,1,1.87.68,2.74.13s1.64-1.5,1-2.5-1.86-.68-2.73-.18-1.68,1.55-1,2.55"/></g><g class="cls-2"><path class="cls-4" d="M8.84,59.68l.82,2.1L4,64.05l-.91-2.32c-.36-.91-.41-2,.64-2.46a1.4,1.4,0,0,1,1.78.59,1.4,1.4,0,0,1,.86-1.77c1.32-.6,2.05.45,2.51,1.59M4,61.78l.28.72,1.64-.63-.23-.6c-.23-.54-.64-1-1.28-.77s-.59.77-.41,1.28M6.38,61l.23.55,1.77-.73-.23-.59c-.22-.6-.68-1.19-1.36-.91s-.64,1-.41,1.68"/></g><g class="cls-2"><path class="cls-4" d="M6.51,51.21,5.1,52l.5,2.55,1.6.23.27,1.32L1,55,.64,53.3,6.2,49.79ZM1.69,54l3,.46-.41-2Z"/></g><g class="cls-2"><polygon class="cls-4" points="6.15 47.97 0 48.11 0 46.74 5.01 46.6 4.97 43.96 6.06 43.96 6.15 47.97"/></g><g class="cls-2"><path class="cls-4" d="M7.47,35.26c-.5,1.91-2,2.6-3.83,2.1a2.87,2.87,0,0,1-2.27-3.74,2.8,2.8,0,0,1,3.82-2.09,2.86,2.86,0,0,1,2.28,3.73M2.28,33.89C2,35,3.05,35.72,4,36s2.23.18,2.55-1-.73-1.82-1.73-2.09-2.23-.23-2.55,1"/></g><g class="cls-2"><path class="cls-4" d="M10.43,27.29l-1.82-.23c-.64,0-.87,0-1.14.59l-.23.46L9.52,29.2l-.59,1.19L3.42,27.74l1.09-2.23c.46-1,1.28-1.68,2.37-1.18a1.49,1.49,0,0,1,.73,1.91,1.17,1.17,0,0,1,1.23-.5l2.23.18ZM5.1,26.38,4.83,27l1.59.77.28-.54c.27-.55.36-1.23-.28-1.55s-1,.14-1.32.73"/></g><g class="cls-2"><path class="cls-4" d="M13.9,22a3,3,0,0,1-4.52.87,3.15,3.15,0,0,1-.59-4.6,8.19,8.19,0,0,1,1.32-1.37l.82.64a3.08,3.08,0,0,0-1.18,1.09,2.08,2.08,0,0,0,.45,3.1,1.93,1.93,0,0,0,2.92-.27,3.63,3.63,0,0,0,.46-.87l-1.05-.77-.46.64L11.34,20l1.19-1.64,2.41,1.74a9,9,0,0,1-1,1.95"/></g><g class="cls-2"><path class="cls-4" d="M19.77,15.49l-1.46-.73-1.86,1.78.63,1.5-.95.91-2.51-6.1,1.32-1.23,5.93,2.87Zm-4.92-2.6L16,15.67l1.5-1.41Z"/></g><g class="cls-2"><polygon class="cls-4" points="25.19 11.66 20.64 8.61 23.28 12.85 22.23 13.48 19 8.29 20.68 7.24 25.28 10.3 22.64 6.06 23.64 5.42 26.88 10.62 25.19 11.66"/></g><g class="cls-2"><polygon class="cls-4" points="29.25 9.57 26.83 3.92 28.06 3.42 30.48 9.02 29.25 9.57"/></g><g class="cls-2"><path class="cls-4" d="M35.81,7.43c-1.92.5-3.56-.23-4.06-2.19a3.11,3.11,0,0,1,2.42-3.92,5.63,5.63,0,0,1,1.55-.18l.22,1a4.08,4.08,0,0,0-1.27.09,2,2,0,0,0-1.5,2.64,2,2,0,0,0,2.59,1.55A3.17,3.17,0,0,0,37,5.83l.32,1a6.29,6.29,0,0,1-1.46.64"/></g><g class="cls-2"><polygon class="cls-4" points="46.74 1.18 46.65 6.2 45.28 6.2 45.38 1.14 43.46 1.09 43.51 0 48.7 0.14 48.66 1.23 46.74 1.18"/></g><g class="cls-2"><polygon class="cls-4" points="50.34 6.47 51.48 0.46 55.4 1.18 55.22 2.1 52.62 1.64 52.3 3.19 54.81 3.65 54.67 4.56 52.16 4.1 51.84 5.79 54.53 6.29 54.4 7.2 50.34 6.47"/></g><g class="cls-2"><polygon class="cls-4" points="60.09 9.11 59.5 6.24 57.17 8.02 55.76 7.52 59 5.29 58.13 1.87 59.59 2.37 60.14 4.97 62.19 3.37 63.55 3.87 60.64 5.92 61.59 9.66 60.09 9.11"/></g><g class="cls-2"><polygon class="cls-4" points="67.61 7.29 65.1 11.66 63.92 10.98 66.42 6.61 64.74 5.65 65.28 4.69 69.84 7.29 69.29 8.2 67.61 7.29"/></g><rect class="cls-4" x="67.6" y="11" width="6.15" height="1.37" transform="translate(18.6 60.87) rotate(-52.75)"/><g class="cls-2"><polygon class="cls-4" points="71.53 16.36 75.85 12.03 76.81 12.98 73.26 16.54 75.12 18.41 74.35 19.18 71.53 16.36"/></g><g class="cls-2"><polygon class="cls-4" points="75.49 20.55 80.41 16.9 82.78 20.09 82.05 20.68 80.45 18.54 79.13 19.5 80.68 21.5 79.91 22.09 78.4 20.05 77.04 21.05 78.68 23.28 77.9 23.83 75.49 20.55"/></g><g class="cls-2"><path class="cls-4" d="M81.59,31.39a6.94,6.94,0,0,1-.41-1.87l1-.32a3.12,3.12,0,0,0,.27,1.73c.18.55.59,1.05,1.23.82.45-.18.45-.86.45-1.32l0-.68a1.7,1.7,0,0,1,1-1.73c1.23-.46,2.14.68,2.5,1.73a5.88,5.88,0,0,1,.37,1.5l-1,.32a5,5,0,0,0-.23-1.41c-.18-.46-.54-1.09-1.14-.87-.41.14-.41.73-.41,1.14v.73c0,.87-.18,1.6-1.09,1.91-1.32.41-2.28-.54-2.69-1.68"/></g><g class="cls-2"><polygon class="cls-4" points="88.52 37.04 83.6 38.04 83.32 36.72 88.25 35.72 87.88 33.8 88.93 33.62 89.98 38.72 88.93 38.95 88.52 37.04"/></g><g class="cls-2"><path class="cls-4" d="M84.28,45.79l1.5-.6-.09-2.59-1.55-.5,0-1.33,6.19,2.15,0,1.77-6.06,2.55Zm5.19-2-2.82-1,0,2Z"/></g><g class="cls-2"><polygon class="cls-4" points="83.6 52.3 88.93 50.89 83.96 50.07 84.19 48.88 90.2 49.88 89.89 51.84 84.6 53.26 89.52 54.08 89.34 55.26 83.28 54.26 83.6 52.3"/></g><g class="cls-2"><path class="cls-4" d="M81.87,58.68l.73-1.92,5.74,2.15-.82,2.14a2.77,2.77,0,0,1-4,1.82c-2-.73-2.37-2.32-1.68-4.19m4.87,1.82.27-.68-4-1.51-.18.46A1.87,1.87,0,0,0,84.1,61.5a1.8,1.8,0,0,0,2.64-1"/></g><g class="cls-2"><path class="cls-4" d="M77.68,67l1.59.32,1.37-2.23-1-1.27.68-1.14,4.06,5.19-.91,1.55L77,68.24Zm5.46,1.14-1.87-2.32-1,1.73Z"/></g><g class="cls-2"><path class="cls-4" d="M73.67,72l1.73.68c.59.23.82.27,1.27-.23l.32-.36-1.91-1.69.86-1,4.61,4-1.64,1.87c-.69.78-1.69,1.28-2.6.5a1.53,1.53,0,0,1-.18-2,1.27,1.27,0,0,1-1.32.14l-2.1-.82Zm4.92,2.32.41-.5-1.32-1.19-.41.46c-.41.46-.69,1.09-.14,1.55s1,.18,1.46-.32"/></g><g class="cls-2"><path class="cls-4" d="M69.7,75.67l1.6-1.27,3.78,4.82L73.3,80.64a2.83,2.83,0,0,1-4.37-.46c-1.23-1.68-.78-3.28.77-4.51m3.24,4.1.54-.45L70.84,76l-.41.32a1.85,1.85,0,0,0-.32,3,1.89,1.89,0,0,0,2.83.5"/></g><g class="cls-2"><path class="cls-4" d="M34.62,89.06c-1.91-.5-3-1.91-2.5-3.91a3.14,3.14,0,0,1,4.05-2.28A6.19,6.19,0,0,1,38,83.6l-.32,1a3.47,3.47,0,0,0-1.46-.73,2.05,2.05,0,0,0-2.69,1.6,1.93,1.93,0,0,0,1.37,2.59,2.25,2.25,0,0,0,1,.09l.32-1.27-.78-.18.23-.87,2,.5-.73,2.87a4.94,4.94,0,0,1-2.19-.14"/></g><g class="cls-2"><path class="cls-4" d="M42.28,90.2a2.79,2.79,0,0,1-2.78-3.32,2.88,2.88,0,0,1,3.19-3,2.79,2.79,0,0,1,2.78,3.32,2.86,2.86,0,0,1-3.19,3m.32-5.33C41.41,84.78,41,86,40.86,87s.28,2.23,1.42,2.28,1.64-1.1,1.73-2.1S43.83,85,42.6,84.87"/></g><g class="cls-2"><polygon class="cls-4" points="49.93 85.06 50.43 90.07 49.06 90.2 48.56 85.19 46.65 85.38 46.56 84.33 51.71 83.78 51.84 84.87 49.93 85.06"/></g><path class="cls-4" d="M56.45,89.06a8.19,8.19,0,0,1-1.83.23l-.22-1a3.19,3.19,0,0,0,1.73-.09c.54-.14,1-.5.91-1.09s-.78-.51-1.28-.6l-.64-.09a1.67,1.67,0,0,1-1.59-1.18c-.32-1.28.87-2,1.91-2.28A4.12,4.12,0,0,1,57,82.78l.22,1a4.82,4.82,0,0,0-1.41.1c-.45.13-1.09.45-.95,1s.68.5,1.09.54l.68.1c.82.09,1.51.36,1.73,1.27.28,1.23-.73,2.05-1.86,2.32"/><rect class="cls-4" x="25.87" y="82.53" width="1.28" height="1.41" transform="translate(-60.08 71.67) rotate(-64.72)"/><rect class="cls-4" x="62.87" y="82.63" width="1.41" height="1.28" transform="translate(-29.3 34.8) rotate(-25.08)"/><path class="cls-5" d="M16.9,42.23l8.25,8.25,7.7-7.7V67.24H44.56V31.34L36.13,23ZM54.21,23,45.88,31.3V67.24h11.7V42.78l7.66,7.65,8.24-8.24Z"/></g></g></svg>