<svg xmlns="http://www.w3.org/2000/svg" xmlns:xlink="http://www.w3.org/1999/xlink" viewBox="0 0 90.16 90.28"><defs><style>.cls-1{fill:none;}.cls-2{clip-path:url(#clip-path);}.cls-10,.cls-11,.cls-12,.cls-13,.cls-14,.cls-15,.cls-16,.cls-17,.cls-3,.cls-7,.cls-8,.cls-9{fill:#fff;}.cls-4{fill:#008c99;}.cls-5{fill:#424143;}.cls-6{clip-path:url(#clip-path-2);}.cls-7{font-size:13.48px;}.cls-10,.cls-11,.cls-12,.cls-13,.cls-14,.cls-15,.cls-16,.cls-17,.cls-7,.cls-8,.cls-9{font-family:Arial-BoldMT, Arial;font-weight:700;}.cls-8{font-size:13.48px;}.cls-9{font-size:13.48px;}.cls-10{font-size:13.48px;}.cls-11{font-size:13.48px;}.cls-12{font-size:13.48px;}.cls-13{font-size:13.48px;}.cls-14{font-size:13.48px;}.cls-15{font-size:13.48px;}.cls-16{font-size:13.48px;}.cls-17{font-size:13.48px;}</style><clipPath id="clip-path" transform="translate(-0.61 0)"><path class="cls-1" d="M45.89,0A43.85,43.85,0,1,0,89.74,43.84,43.84,43.84,0,0,0,45.89,0Z"/></clipPath><clipPath id="clip-path-2" transform="translate(-0.61 0)"><rect class="cls-1" width="90.96" height="90.86"/></clipPath></defs><g id="Layer_2" data-name="Layer 2"><g id="Layer_1-2" data-name="Layer 1"><g class="cls-2"><rect class="cls-3" x="1.44" width="87.69" height="87.69"/><path class="cls-4" d="M45.89,0A43.85,43.85,0,1,0,89.74,43.84,43.84,43.84,0,0,0,45.89,0m0,86.9A43.06,43.06,0,1,1,89,43.84,43.05,43.05,0,0,1,45.89,86.9" transform="translate(-0.61 0)"/><rect class="cls-5" x="1.44" y="43.84" width="87.69" height="43.84"/></g><g class="cls-6"><path class="cls-3" d="M74.83,43.84A28.94,28.94,0,1,1,45.89,14.91,28.94,28.94,0,0,1,74.83,43.84" transform="translate(-0.61 0)"/><path class="cls-4" d="M31,58a7.44,7.44,0,0,0-.09,1c0,3.09,1,4.63,3,4.63h11.5v-12H34.31a39.42,39.42,0,0,0-2.55,4,7.77,7.77,0,0,0-.76,2.3" transform="translate(-0.61 0)"/><path class="cls-4" d="M38.75,38.64l6-9.23c-.47-1.06-.94-2-1.41-2.84q-2.71-4.77-5.68-4.77a6,6,0,0,0-1.26.12,2.65,2.65,0,0,0-1.79,1.14l-5.63,9Z" transform="translate(-0.61 0)"/><path class="cls-4" d="M59.44,49.77h5a6,6,0,0,0,3.69-1.55,4.5,4.5,0,0,0,2-3.44,3,3,0,0,0-.55-1.65l-5.9-9L53.55,40Z" transform="translate(-0.61 0)"/><path class="cls-4" d="M66.53,50.8a14.6,14.6,0,0,1-4.44.52l-8.31,0V49.64c0-.66-.16-1-.49-1a.56.56,0,0,0-.51.26L47.55,58,53,66.31c.41.63.77.87,1.07.74s.45-.24.45-.48V63.72h4.6a3.71,3.71,0,0,0,3.56-1.91l7.45-13.54a8.28,8.28,0,0,1-3.59,2.53" transform="translate(-0.61 0)"/><path class="cls-4" d="M38.15,45.59h0l-4.54-8.53L23,37.31a.66.66,0,0,0-.71.74c0,.11.15.26.45.46l2.21,1.32-1.2,1.87h0L22.6,43.46a5.24,5.24,0,0,0-1,2.56,4.26,4.26,0,0,0,.65,2l7.22,12.59a10.78,10.78,0,0,1-.25-2.26,6,6,0,0,1,.22-1.63h0a7.78,7.78,0,0,1,1-2.13l5.45-8.56.06-.09.41.26h0l1.74,1.06c.27,0,.44-.08.51-.25a.45.45,0,0,0,0-.2,2.09,2.09,0,0,0-.26-.81Z" transform="translate(-0.61 0)"/><path class="cls-4" d="M49.11,35.76l8.43.67,5.11-8.61a1.91,1.91,0,0,0,.26-.94c0-.39-.13-.58-.39-.58a2.53,2.53,0,0,1-.51.19l-2.34,1.07-2.13-4.24a4.73,4.73,0,0,0-2.47-2.27h0a8.35,8.35,0,0,0-3.22-.57H38.53a10.44,10.44,0,0,1,3.3,1.46,14.64,14.64,0,0,1,3.41,4.57h0c.26.47.51,1,.77,1.5l2.65,5.57-2,.94a.51.51,0,0,0-.29.52c0,.32.2.51.61.55l2.09.17Z" transform="translate(-0.61 0)"/><path class="cls-4" d="M14.16,36.74l-3.1,1.11-.23,1.42,2.83.47-.23,1.39L5.8,39.87l.46-2.79c.24-1.47,1-2.54,2.64-2.26a2.45,2.45,0,0,1,2,1.66l3.49-1.19Zm-7,1.93,2.32.38.17-1c.21-1.26-.25-1.62-.94-1.74s-1.18.1-1.37,1.3Z" transform="translate(-0.61 0)"/><polygon class="cls-4" points="14.05 34.69 6.8 32 8.53 27.36 9.81 27.83 8.59 31.12 10.14 31.69 11.08 29.14 12.37 29.62 11.42 32.17 13.27 32.86 14.53 29.47 15.82 29.95 14.05 34.69"/><path class="cls-4" d="M13.23,27.66a3.73,3.73,0,0,1-1.48-5.34,5.2,5.2,0,0,1,1.52-1.65l1.07.83A5.24,5.24,0,0,0,12.91,23c-.77,1.29-.21,2.52,1.12,3.32s2.67.72,3.44-.57a5.09,5.09,0,0,0,.68-2l1.24.56a5.48,5.48,0,0,1-.75,2.12,3.73,3.73,0,0,1-5.41,1.19" transform="translate(-0.61 0)"/><polygon class="cls-4" points="19.16 19.23 21.7 21.52 20.75 22.57 18.21 20.28 13.22 19.37 14.22 18.26 17.75 18.91 16.74 15.47 17.75 14.36 19.16 19.23"/><path class="cls-4" d="M21.55,16.7a3.74,3.74,0,0,1,.6-5.51,5.38,5.38,0,0,1,2-1l.69,1.17a5.28,5.28,0,0,0-1.9.89c-1.19.9-1.13,2.25-.19,3.49s2.22,1.65,3.41.75a5.16,5.16,0,0,0,1.36-1.59l.94,1A5.22,5.22,0,0,1,27,17.6a3.72,3.72,0,0,1-5.46-.9" transform="translate(-0.61 0)"/><polygon class="cls-4" points="28.84 15.78 25.34 8.88 26.6 8.24 29.49 13.92 32.32 12.48 32.94 13.7 28.84 15.78"/><polygon class="cls-4" points="33.52 13.52 31.19 6.15 35.91 4.65 36.32 5.96 32.98 7.02 33.48 8.59 36.07 7.77 36.48 9.07 33.89 9.89 34.48 11.78 37.93 10.69 38.34 11.99 33.52 13.52"/><path class="cls-4" d="M39.79,11.81,39.07,4.1,42,3.83a3.62,3.62,0,0,1,4.16,3.5,3.62,3.62,0,0,1-3.44,4.21Zm.82-6.48.46,5,1.48-.14C44,10,44.71,9,44.57,7.47s-1-2.42-2.49-2.28Z" transform="translate(-0.61 0)"/><path class="cls-4" d="M49.67,11.49l1.52-7.58,2.05.41c1.74.35,2.85.85,2.51,2.53a2,2,0,0,1-1,1.45,1.79,1.79,0,0,1,1,2.09c-.35,1.75-1.88,1.94-3.15,1.69Zm2.08-3.17-.45,2.27,1.36.27c.89.18,1.51,0,1.68-.84S54,8.77,53.19,8.61Zm.59-2.95L52,7.23l1.35.27a.84.84,0,0,0,1.1-.7c.16-.8-.22-1.06-.85-1.19Z" transform="translate(-0.61 0)"/><polygon class="cls-4" points="55.48 12.96 58.34 5.78 59.65 6.3 57.3 12.21 60.25 13.39 59.75 14.66 55.48 12.96"/><polygon class="cls-4" points="60.28 14.97 64.32 8.37 68.54 10.96 67.83 12.13 64.84 10.3 63.98 11.7 66.3 13.12 65.58 14.29 63.26 12.87 62.23 14.56 65.31 16.44 64.6 17.61 60.28 14.97"/><polygon class="cls-4" points="68.9 21.49 69.95 15.2 66.32 19.07 65.29 18.1 70.58 12.46 71.59 13.41 70.59 19.32 74 15.67 75.03 16.64 69.74 22.28 68.9 21.49"/><path class="cls-4" d="M71.19,23.26,77.63,19l1.6,2.41a3.61,3.61,0,0,1-1.11,5.32,3.61,3.61,0,0,1-5.33-1Zm6.09-2.35L73.1,23.69l.82,1.23c.83,1.25,2.06,1.35,3.34.5s1.67-2,.84-3.28Z" transform="translate(-0.61 0)"/><polygon class="cls-4" points="74.58 29.68 81.77 26.82 83.6 31.43 82.32 31.93 81.03 28.68 79.5 29.29 80.5 31.81 79.23 32.32 78.22 29.79 76.39 30.52 77.72 33.88 76.45 34.38 74.58 29.68"/><path class="cls-4" d="M77.32,35.19l7.62-1.33.5,2.85A3.87,3.87,0,0,1,77.82,38Zm6.53.29-4.94.87.25,1.46c.26,1.48,1.34,2.06,2.86,1.8s2.34-1.19,2.08-2.67Z" transform="translate(-0.61 0)"/><text class="cls-7" transform="matrix(0.31, 0.95, -0.95, 0.31, 4.82, 53.05)">c</text></g><text class="cls-8" transform="translate(7.66 61.01) rotate(62.77)">l</text><text class="cls-9" transform="translate(9.82 65.21) rotate(53.68)">a</text><text class="cls-10" transform="translate(14.91 71.91) rotate(44.63)">i</text><text class="cls-11" transform="translate(18.37 75.69) rotate(31.95)">m</text><text class="cls-12" transform="matrix(0.94, 0.33, -0.33, 0.94, 29.98, 82.22)"> </text><g class="cls-6"><text class="cls-13" transform="matrix(0.98, 0.17, -0.17, 0.98, 34.35, 83.86)">s</text><text class="cls-14" transform="translate(42.85 85.21) rotate(-0.1)">t</text><text class="cls-14" transform="translate(48.33 85.2) rotate(-9.27)">a</text></g><text class="cls-13" transform="translate(56.99 83.64) rotate(-22.11)">n</text><text class="cls-15" transform="translate(65.91 79.86) rotate(-35.47)">d</text><text class="cls-16" transform="matrix(0.67, -0.74, 0.74, 0.67, 73.55, 74.2)">a</text><text class="cls-17" transform="translate(79.12 67.74) rotate(-58.4)">r</text><g class="cls-6"><text class="cls-7" transform="matrix(0.35, -0.94, 0.94, 0.35, 82.52, 62.28)">d</text></g></g></g></svg>